PathFileType  4	(X/Y/Z) C:\Users\MoBL3\Box\OA_GRF_OpenCap\GRF_Tracking_12_18_24\Subject3_walking1
DataRate	CameraRate	NumFrames	NumMarkers	Units	OrigDataRate	OrigDataStartFrame	OrigNumFrames
100.0		100.0		4		177		 mm	100.0	116	132
Frame#	Time	r_knee			r_shank_antsup			r_ankle			r_calc			r_5meta			r_toe			L_knee			L_shank_antsup			L_ankle			L_calc			L_5meta			L_toe			r_sh2			r_sh3			r_sh4			L_sh2			L_sh3			r_thigh1			r_thigh2			r_thigh3			r_thigh4			r_thigh5			L_thigh1			L_thigh2			L_thigh3			L_thigh4			r.ASIS			r.PSIS			L.ASIS			L.PSIS			C7			R_Shoulder			L_Shoulder			R_Sternum			L_Sternum			R_humerus			R_elbow_med			R_elbow_lat			R_forearm			R_wrist_radius			R_wrist_ulna			L_humerus			L_elbow_med			L_elbow_lat			L_forearm			L_wrist_radius			L_wrist_ulna			R_HJC			L_HJC			R_HJC_reg			L_HJC_reg			Neck			RShoulder			RElbow			RWrist			LShoulder			LElbow			LWrist			midHip			RHip			RKnee			RAnkle			LHip			LKnee			LAnkle			LBigToe			LSmallToe			LHeel			RBigToe			RSmallToe			RHeel			C7_study			r_shoulder_study			L_shoulder_study			r.ASIS_study			L.ASIS_study			r.PSIS_study			L.PSIS_study			r_knee_study			L_knee_study			r_mknee_study			L_mknee_study			r_ankle_study			L_ankle_study			r_mankle_study			L_mankle_study			r_calc_study			L_calc_study			r_toe_study			L_toe_study			r_5meta_study			L_5meta_study			r_thigh1_study			r_thigh2_study			r_thigh3_study			L_thigh1_study			L_thigh2_study			L_thigh3_study			r_sh1_study			r_sh2_study			r_sh3_study			L_sh1_study			L_sh2_study			L_sh3_study			RHJC_study			LHJC_study			r_lelbow_study			L_lelbow_study			r_melbow_study			L_melbow_study			r_lwrist_study			L_lwrist_study			r_mwrist_study			L_mwrist_study			Neck_offsetRemoved			RShoulder_offsetRemoved			RElbow_offsetRemoved			RWrist_offsetRemoved			LShoulder_offsetRemoved			LElbow_offsetRemoved			LWrist_offsetRemoved			midHip_offsetRemoved			RHip_offsetRemoved			RKnee_offsetRemoved			RAnkle_offsetRemoved			LHip_offsetRemoved			LKnee_offsetRemoved			LAnkle_offsetRemoved			LBigToe_offsetRemoved			LSmallToe_offsetRemoved			LHeel_offsetRemoved			RBigToe_offsetRemoved			RSmallToe_offsetRemoved			RHeel_offsetRemoved			C7_study_offsetRemoved			r_shoulder_study_offsetRemoved			L_shoulder_study_offsetRemoved			r.ASIS_study_offsetRemoved			L.ASIS_study_offsetRemoved			r.PSIS_study_offsetRemoved			L.PSIS_study_offsetRemoved			r_knee_study_offsetRemoved			L_knee_study_offsetRemoved			r_mknee_study_offsetRemoved			L_mknee_study_offsetRemoved			r_ankle_study_offsetRemoved			L_ankle_study_offsetRemoved			r_mankle_study_offsetRemoved			L_mankle_study_offsetRemoved			r_calc_study_offsetRemoved			L_calc_study_offsetRemoved			r_toe_study_offsetRemoved			L_toe_study_offsetRemoved			r_5meta_study_offsetRemoved			L_5meta_study_offsetRemoved			r_thigh1_study_offsetRemoved			r_thigh2_study_offsetRemoved			r_thigh3_study_offsetRemoved			L_thigh1_study_offsetRemoved			L_thigh2_study_offsetRemoved			L_thigh3_study_offsetRemoved			r_sh1_study_offsetRemoved			r_sh2_study_offsetRemoved			r_sh3_study_offsetRemoved			L_sh1_study_offsetRemoved			L_sh2_study_offsetRemoved			L_sh3_study_offsetRemoved			RHJC_study_offsetRemoved			LHJC_study_offsetRemoved			r_lelbow_study_offsetRemoved			L_lelbow_study_offsetRemoved			r_melbow_study_offsetRemoved			L_melbow_study_offsetRemoved			r_lwrist_study_offsetRemoved			L_lwrist_study_offsetRemoved			r_mwrist_study_offsetRemoved			L_mwrist_study_offsetRemoved			
		X1	Y1	Z1	X2	Y2	Z2	X3	Y3	Z3	X4	Y4	Z4	X5	Y5	Z5	X6	Y6	Z6	X7	Y7	Z7	X8	Y8	Z8	X9	Y9	Z9	X10	Y10	Z10	X11	Y11	Z11	X12	Y12	Z12	X13	Y13	Z13	X14	Y14	Z14	X15	Y15	Z15	X16	Y16	Z16	X17	Y17	Z17	X18	Y18	Z18	X19	Y19	Z19	X20	Y20	Z20	X21	Y21	Z21	X22	Y22	Z22	X23	Y23	Z23	X24	Y24	Z24	X25	Y25	Z25	X26	Y26	Z26	X27	Y27	Z27	X28	Y28	Z28	X29	Y29	Z29	X30	Y30	Z30	X31	Y31	Z31	X32	Y32	Z32	X33	Y33	Z33	X34	Y34	Z34	X35	Y35	Z35	X36	Y36	Z36	X37	Y37	Z37	X38	Y38	Z38	X39	Y39	Z39	X40	Y40	Z40	X41	Y41	Z41	X42	Y42	Z42	X43	Y43	Z43	X44	Y44	Z44	X45	Y45	Z45	X46	Y46	Z46	X47	Y47	Z47	X48	Y48	Z48	X49	Y49	Z49	X50	Y50	Z50	X51	Y51	Z51	X52	Y52	Z52	X53	Y53	Z53	X54	Y54	Z54	X55	Y55	Z55	X56	Y56	Z56	X57	Y57	Z57	X58	Y58	Z58	X59	Y59	Z59	X60	Y60	Z60	X61	Y61	Z61	X62	Y62	Z62	X63	Y63	Z63	X64	Y64	Z64	X65	Y65	Z65	X66	Y66	Z66	X67	Y67	Z67	X68	Y68	Z68	X69	Y69	Z69	X70	Y70	Z70	X71	Y71	Z71	X72	Y72	Z72	X73	Y73	Z73	X74	Y74	Z74	X75	Y75	Z75	X76	Y76	Z76	X77	Y77	Z77	X78	Y78	Z78	X79	Y79	Z79	X80	Y80	Z80	X81	Y81	Z81	X82	Y82	Z82	X83	Y83	Z83	X84	Y84	Z84	X85	Y85	Z85	X86	Y86	Z86	X87	Y87	Z87	X88	Y88	Z88	X89	Y89	Z89	X90	Y90	Z90	X91	Y91	Z91	X92	Y92	Z92	X93	Y93	Z93	X94	Y94	Z94	X95	Y95	Z95	X96	Y96	Z96	X97	Y97	Z97	X98	Y98	Z98	X99	Y99	Z99	X100	Y100	Z100	X101	Y101	Z101	X102	Y102	Z102	X103	Y103	Z103	X104	Y104	Z104	X105	Y105	Z105	X106	Y106	Z106	X107	Y107	Z107	X108	Y108	Z108	X109	Y109	Z109	X110	Y110	Z110	X111	Y111	Z111	X112	Y112	Z112	X113	Y113	Z113	X114	Y114	Z114	X115	Y115	Z115	X116	Y116	Z116	X117	Y117	Z117	X118	Y118	Z118	X119	Y119	Z119	X120	Y120	Z120	X121	Y121	Z121	X122	Y122	Z122	X123	Y123	Z123	X124	Y124	Z124	X125	Y125	Z125	X126	Y126	Z126	X127	Y127	Z127	X128	Y128	Z128	X129	Y129	Z129	X130	Y130	Z130	X131	Y131	Z131	X132	Y132	Z132	X133	Y133	Z133	X134	Y134	Z134	X135	Y135	Z135	X136	Y136	Z136	X137	Y137	Z137	X138	Y138	Z138	X139	Y139	Z139	X140	Y140	Z140	X141	Y141	Z141	X142	Y142	Z142	X143	Y143	Z143	X144	Y144	Z144	X145	Y145	Z145	X146	Y146	Z146	X147	Y147	Z147	X148	Y148	Z148	X149	Y149	Z149	X150	Y150	Z150	X151	Y151	Z151	X152	Y152	Z152	X153	Y153	Z153	X154	Y154	Z154	X155	Y155	Z155	X156	Y156	Z156	X157	Y157	Z157	X158	Y158	Z158	X159	Y159	Z159	X160	Y160	Z160	X161	Y161	Z161	X162	Y162	Z162	X163	Y163	Z163	X164	Y164	Z164	X165	Y165	Z165	X166	Y166	Z166	X167	Y167	Z167	X168	Y168	Z168	X169	Y169	Z169	X170	Y170	Z170	X171	Y171	Z171	X172	Y172	Z172	X173	Y173	Z173	X174	Y174	Z174	X175	Y175	Z175	X176	Y176	Z176	X177	Y177	Z177	

116	1.15000	1414.649	470.745	-50.418	1485.829	376.718	-68.524	1492.781	97.332	-95.161	1456.945	58.644	-152.462	1614.098	69.029	-66.358	1647.643	100.691	-105.733	1135.008	464.370	-347.036	1115.418	350.754	-297.738	900.474	141.110	-321.450	836.821	123.984	-278.422	991.456	50.455	-330.238	1027.077	54.484	-272.766	1505.107	266.540	-85.854	1429.146	356.023	-20.171	1432.649	246.289	-46.818	1089.301	389.014	-371.114	1021.598	291.500	-380.344	1378.160	780.644	-43.940	1425.434	680.355	-45.209	1391.240	637.815	-3.782	1283.733	734.606	-4.255	1333.550	630.310	-2.489	1288.144	728.821	-367.117	1262.590	594.894	-354.008	1185.672	751.712	-404.603	1154.593	614.773	-382.143	1353.201	917.445	-83.376	1166.929	950.613	-142.863	1350.646	906.321	-328.986	1162.914	954.969	-258.982	1171.430	1405.537	-193.483	1214.113	1366.071	-38.377	1251.149	1388.682	-343.919	1299.436	1355.365	-163.492	1304.561	1354.300	-208.326	1201.075	1235.080	23.726	1113.173	1056.870	-61.422	1111.721	1061.808	15.291	1110.779	939.934	45.140	1099.478	835.883	52.296	1063.296	845.104	56.772	1304.891	1255.060	-413.715	1290.741	1047.322	-388.848	1306.023	1068.383	-456.761	1401.271	1029.626	-469.014	1508.485	960.170	-449.364	1495.546	936.780	-469.166	1264.889	842.029	-103.025	1263.740	833.560	-292.218	1285.916	834.287	-118.263	1280.312	840.365	-280.323	1234.002	1287.334	-181.637	1220.073	1278.738	-25.230	1143.479	1021.794	7.237	1069.657	790.982	39.073	1257.512	1296.896	-337.276	1308.531	1055.543	-403.304	1485.374	898.786	-422.939	1275.978	840.771	-185.881	1279.698	845.354	-75.080	1407.073	456.666	-102.998	1494.505	57.294	-132.413	1278.229	837.055	-296.375	1118.828	422.483	-277.142	907.464	103.192	-284.669	1026.724	19.620	-277.081	1021.454	23.553	-277.867	861.319	78.260	-281.338	1639.858	37.050	-109.652	1634.626	37.635	-110.103	1473.990	19.415	-142.643	1161.509	1334.561	-190.445	1226.171	1322.228	-48.221	1256.252	1327.160	-317.574	1331.024	915.926	-33.880	1318.159	905.398	-345.034	1166.529	933.266	-127.256	1160.929	927.425	-246.803	1429.889	471.253	-57.072	1139.496	439.485	-331.672	1430.525	477.627	-167.253	1146.564	441.402	-223.829	1487.659	69.423	-79.357	905.178	109.116	-314.386	1502.664	77.262	-160.924	924.857	106.775	-234.228	1430.919	34.457	-127.051	830.613	103.764	-267.399	1615.625	49.195	-115.245	1008.914	25.519	-273.597	1577.858	39.555	-67.309	971.552	33.260	-323.496	1395.494	740.642	-30.562	1408.563	636.383	-22.115	1292.766	706.158	1.279	1286.764	664.522	-350.936	1226.209	576.789	-364.571	1182.193	705.084	-376.830	1450.410	348.003	-58.201	1497.739	235.579	-54.233	1430.140	231.808	-47.861	1070.124	333.997	-333.867	1024.493	223.164	-338.060	973.627	265.849	-341.151	1245.493	845.783	-91.566	1239.955	837.804	-278.838	1150.014	1048.353	42.684	1308.312	1056.564	-446.860	1131.134	1039.434	-29.890	1297.098	1037.754	-368.506	1104.987	793.907	29.714	1507.957	928.918	-422.601	1042.549	813.478	34.946	1458.919	876.139	-439.710	1237.884	1300.415	-185.228	1223.955	1291.819	-28.821	1147.361	1034.875	3.646	1073.539	804.063	35.482	1261.394	1309.977	-340.867	1312.413	1068.623	-406.895	1489.256	911.867	-426.531	1279.860	853.852	-189.472	1283.580	858.435	-78.671	1410.955	469.747	-106.589	1498.387	70.375	-136.004	1282.111	850.136	-299.966	1122.710	435.564	-280.733	911.346	116.273	-288.260	1030.606	32.701	-280.672	1025.336	36.633	-281.458	865.201	91.341	-284.929	1643.740	50.130	-113.243	1638.508	50.716	-113.694	1477.872	32.496	-146.234	1165.391	1347.642	-194.036	1230.053	1335.308	-51.812	1260.134	1340.241	-321.165	1334.906	929.007	-37.471	1322.041	918.479	-348.625	1170.411	946.347	-130.847	1164.811	940.505	-250.394	1433.771	484.334	-60.663	1143.378	452.566	-335.263	1434.408	490.708	-170.844	1150.446	454.483	-227.420	1491.542	82.504	-82.948	909.060	122.197	-317.977	1506.546	90.343	-164.516	928.739	119.856	-237.819	1434.801	47.537	-130.642	834.495	116.844	-270.990	1619.507	62.276	-118.836	1012.796	38.599	-277.188	1581.741	52.636	-70.900	975.434	46.341	-327.087	1399.377	753.723	-34.153	1412.445	649.464	-25.706	1296.648	719.239	-2.312	1290.646	677.602	-354.527	1230.091	589.870	-368.162	1186.075	718.165	-380.421	1454.293	361.084	-61.792	1501.621	248.660	-57.824	1434.022	244.889	-51.452	1074.006	347.078	-337.458	1028.375	236.245	-341.651	977.509	278.929	-344.742	1249.375	858.864	-95.157	1243.837	850.885	-282.429	1153.896	1061.433	39.093	1312.194	1069.645	-450.452	1135.016	1052.514	-33.481	1300.980	1050.835	-372.097	1108.870	806.988	26.123	1511.839	941.999	-426.192	1046.431	826.559	31.355	1462.801	889.220	-443.301
117	1.16000	1425.739	469.416	-48.960	1495.949	374.128	-67.689	1497.547	95.045	-95.314	1459.628	59.214	-153.021	1617.322	61.893	-66.893	1652.513	91.613	-106.285	1149.937	462.454	-346.215	1128.324	348.137	-299.241	906.439	145.580	-322.323	842.909	131.370	-279.074	993.166	49.649	-330.482	1028.422	52.682	-272.749	1513.766	263.845	-85.407	1439.316	354.221	-19.229	1441.037	244.574	-46.193	1101.431	389.137	-370.829	1030.499	294.098	-380.856	1392.244	779.714	-42.185	1438.638	679.042	-43.538	1404.072	636.815	-2.312	1297.490	734.610	-2.453	1346.320	629.583	-0.782	1302.126	727.161	-365.109	1277.323	592.886	-353.018	1199.184	749.859	-401.821	1168.753	612.791	-379.098	1367.309	917.197	-81.150	1180.792	949.789	-141.215	1365.702	904.482	-326.868	1177.716	953.208	-257.564	1183.659	1403.782	-191.447	1226.398	1364.512	-36.301	1263.196	1386.991	-342.135	1311.820	1354.236	-161.471	1317.006	1353.191	-206.333	1214.525	1233.301	25.722	1128.210	1054.096	-59.077	1126.885	1059.137	17.474	1127.457	937.193	47.339	1117.541	833.024	54.523	1081.206	841.775	58.991	1316.285	1252.794	-411.809	1300.993	1045.226	-386.369	1316.271	1066.026	-454.338	1411.125	1026.347	-466.672	1517.634	955.740	-446.927	1504.569	932.598	-466.954	1279.165	841.525	-100.574	1278.666	831.835	-289.704	1299.814	833.834	-115.950	1295.517	838.606	-278.201	1246.697	1286.610	-179.765	1233.127	1278.302	-23.677	1158.283	1020.215	9.035	1087.849	788.407	41.952	1269.753	1295.820	-335.125	1318.542	1054.048	-401.395	1494.215	894.310	-421.040	1290.262	839.520	-183.710	1293.982	844.130	-73.148	1418.543	454.979	-101.916	1498.736	54.854	-132.368	1292.559	835.755	-293.957	1136.589	419.549	-276.438	913.039	106.687	-285.683	1025.963	17.432	-277.020	1020.968	21.500	-277.849	865.831	84.056	-282.517	1641.128	28.891	-108.818	1636.060	29.767	-109.364	1476.017	17.270	-142.911	1173.465	1333.028	-189.336	1237.808	1320.727	-46.787	1268.570	1326.565	-316.244	1344.994	916.383	-32.555	1331.985	902.904	-343.933	1180.514	932.241	-126.076	1174.705	925.380	-245.536	1442.875	470.545	-56.310	1156.210	437.089	-331.873	1442.465	476.648	-166.653	1163.009	438.355	-223.824	1490.264	67.071	-79.790	911.438	114.613	-315.238	1504.661	74.555	-161.489	930.481	111.175	-235.331	1431.591	34.170	-126.895	837.445	113.406	-269.178	1617.274	42.691	-116.351	1009.415	25.231	-274.051	1579.545	34.616	-68.251	973.551	35.296	-323.989	1410.232	739.750	-29.485	1422.718	635.650	-21.128	1307.627	705.667	3.119	1302.284	662.962	-349.573	1242.280	575.206	-363.869	1197.395	703.225	-375.515	1460.680	346.542	-58.000	1505.307	232.818	-54.796	1437.608	231.017	-47.290	1083.746	333.642	-334.140	1034.499	224.408	-338.337	985.249	268.748	-342.148	1259.850	845.277	-89.434	1254.131	835.498	-276.702	1166.014	1046.353	44.894	1319.151	1054.756	-444.471	1146.720	1037.403	-27.820	1307.859	1036.478	-366.061	1123.091	791.966	31.906	1517.268	924.439	-420.287	1060.406	810.853	37.271	1467.437	871.572	-437.117	1250.579	1299.691	-183.356	1237.009	1291.383	-27.268	1162.165	1033.295	5.444	1091.731	801.488	38.361	1273.636	1308.901	-338.716	1322.424	1067.129	-404.986	1498.097	907.391	-424.631	1294.145	852.600	-187.301	1297.864	857.211	-76.739	1422.425	468.060	-105.507	1502.618	67.934	-135.959	1296.441	848.835	-297.548	1140.471	432.630	-280.029	916.922	119.768	-289.274	1029.845	30.512	-280.611	1024.850	34.580	-281.440	869.713	97.136	-286.108	1645.010	41.972	-112.409	1639.942	42.848	-112.955	1479.899	30.351	-146.502	1177.347	1346.109	-192.927	1241.690	1333.808	-50.378	1272.452	1339.646	-319.835	1348.876	929.464	-36.146	1335.867	915.985	-347.524	1184.396	945.322	-129.667	1178.588	938.461	-249.127	1446.757	483.625	-59.901	1160.092	450.169	-335.465	1446.347	489.728	-170.244	1166.891	451.436	-227.415	1494.146	80.152	-83.381	915.320	127.694	-318.829	1508.543	87.636	-165.080	934.363	124.256	-238.922	1435.473	47.251	-130.486	841.327	126.487	-272.769	1621.156	55.771	-119.942	1013.297	38.312	-277.642	1583.427	47.697	-71.842	977.433	48.377	-327.580	1414.114	752.831	-33.076	1426.600	648.731	-24.719	1311.509	718.748	-0.472	1306.166	676.043	-353.164	1246.162	588.287	-367.460	1201.278	716.305	-379.106	1464.562	359.623	-61.591	1509.189	245.898	-58.387	1441.490	244.098	-50.881	1087.628	346.723	-337.731	1038.381	237.489	-341.928	989.131	281.829	-345.739	1263.732	858.358	-93.025	1258.013	848.579	-280.293	1169.896	1059.434	41.303	1323.033	1067.837	-448.062	1150.603	1050.484	-31.411	1311.741	1049.559	-369.652	1126.973	805.047	28.315	1521.150	937.520	-423.878	1064.288	823.933	33.680	1471.319	884.653	-440.708
118	1.17000	1436.880	468.110	-47.531	1505.639	371.251	-66.800	1501.730	92.598	-95.550	1461.923	58.866	-153.309	1620.034	55.511	-67.474	1656.508	83.441	-106.985	1166.235	459.899	-345.768	1142.540	344.906	-301.023	913.609	150.172	-323.179	850.357	139.221	-279.768	995.267	48.577	-330.710	1029.962	50.559	-272.661	1521.905	260.962	-84.922	1449.143	352.287	-18.225	1448.951	242.754	-45.499	1115.037	388.710	-370.779	1040.839	296.292	-381.510	1406.171	778.869	-40.750	1451.894	677.920	-42.237	1417.137	635.936	-0.904	1311.389	734.651	-0.484	1359.343	629.032	1.040	1316.572	725.276	-362.925	1292.951	590.561	-352.207	1213.007	747.576	-398.876	1183.704	610.182	-376.170	1381.203	917.029	-78.875	1194.377	948.830	-139.588	1380.755	902.455	-324.558	1192.433	951.173	-256.212	1195.928	1401.861	-189.374	1238.691	1362.772	-34.212	1275.255	1385.103	-340.366	1324.183	1352.934	-159.426	1329.436	1351.899	-204.310	1228.055	1231.338	27.729	1143.350	1051.119	-56.616	1142.276	1056.208	19.708	1144.588	934.206	49.574	1136.270	829.913	56.761	1099.799	838.125	61.246	1327.549	1250.228	-409.901	1311.020	1042.861	-383.714	1326.196	1063.362	-451.775	1420.538	1022.528	-464.300	1526.151	950.507	-444.609	1512.889	927.636	-464.827	1293.284	841.013	-97.987	1293.598	829.898	-287.030	1313.513	833.411	-113.582	1310.794	836.679	-275.939	1259.453	1285.776	-177.888	1246.254	1277.692	-22.182	1172.967	1018.667	10.910	1107.792	785.857	45.509	1282.024	1294.705	-332.900	1328.476	1052.303	-399.299	1502.409	889.127	-419.255	1304.421	838.454	-181.672	1308.053	843.065	-71.320	1429.810	453.250	-100.955	1502.830	52.526	-132.422	1306.835	834.637	-291.743	1156.603	416.023	-276.331	919.850	110.404	-286.678	1025.426	14.934	-276.723	1020.757	19.149	-277.600	871.649	90.374	-283.687	1642.442	21.314	-108.096	1637.519	22.432	-108.736	1478.133	15.253	-143.226	1185.343	1331.658	-188.412	1249.367	1319.500	-45.625	1280.816	1326.011	-315.049	1358.885	916.955	-31.404	1345.686	900.577	-342.894	1194.417	931.410	-124.981	1188.414	923.586	-244.339	1455.344	469.816	-55.678	1174.179	434.531	-332.313	1453.940	475.649	-166.196	1180.802	435.191	-224.034	1492.694	64.976	-80.163	918.812	120.416	-316.255	1506.481	72.148	-161.957	937.212	115.878	-236.641	1432.242	33.851	-126.733	845.842	123.797	-271.179	1618.717	36.958	-117.235	1009.997	24.934	-274.640	1581.028	30.338	-69.053	975.853	37.479	-324.603	1424.738	738.919	-28.463	1436.505	634.897	-20.249	1322.169	705.271	4.769	1318.237	661.872	-348.464	1259.170	573.770	-363.406	1212.863	701.390	-374.334	1470.480	345.152	-57.861	1512.454	230.274	-55.369	1444.760	230.303	-46.816	1098.648	333.193	-334.637	1045.610	225.731	-338.813	998.146	271.772	-343.328	1274.088	844.927	-87.418	1268.163	833.399	-274.664	1182.130	1044.500	47.043	1329.643	1053.038	-442.155	1162.533	1035.494	-25.863	1318.240	1035.284	-363.699	1141.844	790.237	34.014	1525.861	919.620	-418.156	1078.878	808.304	39.666	1475.163	866.805	-434.755	1263.336	1298.856	-181.479	1250.136	1290.773	-25.773	1176.849	1031.748	7.319	1111.674	798.938	41.918	1285.906	1307.785	-336.491	1332.358	1065.384	-402.890	1506.291	902.207	-422.846	1308.303	851.535	-185.263	1311.936	856.146	-74.911	1433.692	466.331	-104.546	1506.712	65.606	-136.013	1310.717	847.718	-295.334	1160.485	429.104	-279.922	923.732	123.485	-290.269	1029.308	28.015	-280.314	1024.639	32.229	-281.191	875.531	103.455	-287.278	1646.324	34.394	-111.687	1641.401	35.513	-112.327	1482.015	28.334	-146.817	1189.225	1344.738	-192.003	1253.249	1332.581	-49.216	1284.698	1339.092	-318.640	1362.767	930.036	-34.995	1349.569	913.658	-346.485	1198.300	944.490	-128.572	1192.296	936.667	-247.930	1459.226	482.897	-59.269	1178.061	447.612	-335.904	1457.822	488.730	-169.787	1184.684	448.272	-227.625	1496.576	78.056	-83.754	922.694	133.496	-319.846	1510.363	85.229	-165.548	941.095	128.959	-240.232	1436.124	46.932	-130.324	849.724	136.878	-274.770	1622.599	50.039	-120.826	1013.880	38.015	-278.231	1584.911	43.419	-72.644	979.736	50.560	-328.195	1428.620	752.000	-32.054	1440.387	647.978	-23.840	1326.051	718.352	1.178	1322.119	674.953	-352.055	1263.052	586.851	-366.997	1216.745	714.470	-377.925	1474.362	358.233	-61.452	1516.336	243.355	-58.960	1448.642	243.384	-50.407	1102.531	346.274	-338.228	1049.492	238.812	-342.404	1002.028	284.853	-346.919	1277.970	858.008	-91.009	1272.045	846.479	-278.255	1186.012	1057.581	43.452	1333.526	1066.119	-445.746	1166.415	1048.574	-29.454	1322.122	1048.364	-367.290	1145.726	803.317	30.423	1529.743	932.701	-421.747	1082.760	821.384	36.075	1479.045	879.886	-438.346
119	1.18000	1448.308	466.878	-46.315	1514.889	368.105	-66.056	1505.107	89.989	-95.831	1463.657	57.606	-153.384	1622.072	49.953	-67.951	1659.459	76.296	-107.674	1184.013	456.645	-345.610	1158.104	341.072	-302.841	922.150	154.975	-323.963	859.377	147.628	-280.469	997.813	47.459	-330.908	1031.814	48.234	-272.527	1529.391	257.850	-84.537	1458.647	350.254	-17.247	1456.311	240.838	-44.755	1130.350	387.623	-370.876	1052.850	297.963	-382.160	1419.923	778.170	-39.503	1465.177	677.041	-41.274	1430.476	635.186	0.409	1325.394	734.636	1.650	1372.686	628.638	2.857	1331.478	723.136	-360.546	1309.515	587.929	-351.506	1227.167	744.813	-395.742	1199.535	606.875	-373.476	1394.824	916.938	-76.543	1207.691	947.738	-138.054	1395.684	900.283	-322.039	1206.976	948.878	-254.953	1208.216	1399.829	-187.301	1250.978	1360.904	-32.127	1287.347	1383.066	-338.607	1336.519	1351.475	-157.377	1341.836	1350.438	-202.270	1241.668	1229.243	29.733	1158.590	1048.005	-54.058	1157.880	1053.085	21.995	1162.160	931.044	51.843	1155.638	826.633	59.010	1119.068	834.238	63.533	1338.689	1247.436	-408.002	1320.862	1040.297	-380.877	1335.803	1060.474	-449.070	1429.517	1018.242	-461.891	1533.999	944.526	-442.407	1520.473	921.952	-462.773	1307.179	840.499	-95.293	1308.469	827.771	-284.221	1327.006	833.033	-111.103	1325.996	834.623	-273.469	1272.210	1284.796	-175.997	1259.351	1276.873	-20.696	1187.427	1017.164	12.873	1128.802	783.271	49.414	1294.309	1293.524	-330.628	1338.413	1050.199	-396.925	1509.931	883.253	-417.571	1318.367	837.472	-179.815	1321.865	842.063	-69.606	1440.913	451.473	-100.143	1506.517	50.232	-132.568	1320.945	833.592	-289.814	1178.934	412.012	-276.661	927.999	114.398	-287.617	1025.198	12.434	-276.307	1020.908	16.818	-277.232	878.941	97.234	-284.816	1643.793	14.421	-107.643	1638.983	15.730	-108.366	1480.173	13.241	-143.573	1197.125	1330.348	-187.646	1260.833	1318.459	-44.741	1292.944	1325.371	-313.995	1372.629	917.525	-30.449	1359.173	898.352	-341.950	1208.151	930.668	-123.984	1201.987	921.956	-243.240	1467.185	468.918	-55.229	1193.507	431.746	-333.002	1464.867	474.502	-165.900	1200.070	431.836	-224.486	1494.915	63.006	-80.550	927.450	126.423	-317.443	1508.098	69.930	-162.392	945.219	120.776	-238.150	1432.867	33.347	-126.656	855.994	134.755	-273.382	1619.947	31.934	-117.969	1010.799	24.631	-275.361	1582.300	26.608	-69.783	978.600	39.769	-325.348	1438.897	738.007	-27.529	1449.795	633.964	-19.510	1336.265	704.838	6.186	1334.572	661.210	-347.674	1276.870	572.410	-363.226	1228.542	699.474	-373.320	1479.704	343.684	-57.833	1519.078	227.826	-55.985	1451.505	229.524	-46.524	1114.948	332.530	-335.386	1057.946	227.032	-339.505	1012.439	274.817	-344.676	1288.122	844.619	-85.554	1281.959	831.428	-272.774	1198.277	1042.687	49.107	1339.771	1051.304	-439.947	1178.504	1033.596	-24.038	1328.221	1034.064	-361.452	1161.210	788.616	36.039	1533.720	914.390	-416.230	1097.933	805.725	42.115	1482.082	861.774	-432.647	1276.092	1297.877	-179.588	1263.233	1289.954	-24.287	1191.309	1030.245	9.282	1132.684	796.352	45.822	1298.192	1306.605	-334.219	1342.295	1063.279	-400.516	1513.813	896.334	-421.162	1322.250	850.552	-183.406	1325.747	855.143	-73.197	1444.795	464.554	-103.734	1510.399	63.313	-136.159	1324.827	846.672	-293.405	1182.817	425.092	-280.252	931.881	127.478	-291.208	1029.080	25.515	-279.898	1024.790	29.899	-280.823	882.823	110.315	-288.408	1647.675	27.501	-111.234	1642.866	28.811	-111.957	1484.055	26.322	-147.164	1201.007	1343.429	-191.237	1264.715	1331.540	-48.332	1296.826	1338.452	-317.586	1376.511	930.605	-34.040	1363.055	911.433	-345.541	1212.033	943.749	-127.575	1205.869	935.037	-246.831	1471.067	481.998	-58.820	1197.389	444.827	-336.593	1468.749	487.583	-169.491	1203.952	444.917	-228.077	1498.797	76.086	-84.141	931.332	139.504	-321.034	1511.980	83.010	-165.983	949.101	133.857	-241.741	1436.749	46.428	-130.247	859.876	147.836	-276.973	1623.829	45.014	-121.560	1014.681	37.712	-278.952	1586.182	39.689	-73.374	982.482	52.849	-328.939	1442.779	751.088	-31.120	1453.677	647.045	-23.101	1340.147	717.919	2.595	1338.454	674.290	-351.265	1280.752	585.491	-366.817	1232.424	712.555	-376.911	1483.586	356.765	-61.424	1522.960	240.906	-59.576	1455.387	242.605	-50.115	1118.830	345.611	-338.977	1061.828	240.113	-343.096	1016.321	287.898	-348.267	1292.004	857.700	-89.145	1285.841	844.508	-276.365	1202.159	1055.768	45.516	1343.653	1064.385	-443.538	1182.386	1046.676	-27.629	1332.103	1047.145	-365.043	1165.092	801.696	32.448	1537.602	927.471	-419.821	1101.815	818.806	38.524	1485.964	874.855	-436.239
